<mxfile host="app.diagrams.net" modified="2023-10-13T15:19:39.992Z" agent="Mozilla/5.0 (Windows NT 10.0; Win64; x64) AppleWebKit/537.36 (KHTML, like Gecko) Chrome/118.0.0.0 Safari/537.36" etag="pbqp4je0G8tX2Mt3oGma" version="22.0.4" type="github">
  <diagram name="PÃ¡gina-1" id="PqSsCMHdxQcDdJAgpGdl">
    <mxGraphModel dx="1518" dy="696" grid="0" gridSize="10" guides="1" tooltips="1" connect="1" arrows="1" fold="1" page="0" pageScale="1" pageWidth="827" pageHeight="1169" math="0" shadow="0">
      <root>
        <mxCell id="0" />
        <mxCell id="1" parent="0" />
        <mxCell id="uwY-2UBI9H5vYCJlG3WE-1" value="Plato" style="swimlane;childLayout=stackLayout;horizontal=1;startSize=50;horizontalStack=0;rounded=1;fontSize=14;fontStyle=0;strokeWidth=2;resizeParent=0;resizeLast=1;shadow=0;dashed=0;align=center;arcSize=4;whiteSpace=wrap;html=1;" vertex="1" parent="1">
          <mxGeometry x="111" y="43" width="160" height="120" as="geometry" />
        </mxCell>
        <mxCell id="uwY-2UBI9H5vYCJlG3WE-2" value="+&lt;b&gt;&lt;font style=&quot;font-size: 14px;&quot;&gt;id_plato: int&lt;/font&gt;&lt;/b&gt;&lt;br&gt;+Attribute2&lt;br&gt;+Attribute3" style="align=left;strokeColor=none;fillColor=none;spacingLeft=4;fontSize=12;verticalAlign=top;resizable=0;rotatable=0;part=1;html=1;" vertex="1" parent="uwY-2UBI9H5vYCJlG3WE-1">
          <mxGeometry y="50" width="160" height="70" as="geometry" />
        </mxCell>
      </root>
    </mxGraphModel>
  </diagram>
</mxfile>
